<?xml version="1.0" encoding="utf-8"?>
<svg version="1.1" xmlns:xlink="http://www.w3.org/1999/xlink" width="28px" height="28px" xmlns="http://www.w3.org/2000/svg">
  <defs>
    <pattern id="BGPattern" patternUnits="userSpaceOnUse" alignment="0 0" imageRepeat="None" />
    <mask fill="white" id="Clip8">
      <path d="M 16.82 14  L 28 2.8200000000000003  L 25.18 0  L 14 11.18  L 2.8200000000000003 0  L 0 2.8200000000000003  L 11.18 14  L 0 25.18  L 2.8200000000000003 28  L 14 16.82  L 25.18 28  L 28 25.18  L 16.82 14  Z " fill-rule="evenodd" />
    </mask>
  </defs>
  <g transform="matrix(1 0 0 1 -302 -20 )">
    <path d="M 16.82 14  L 28 2.8200000000000003  L 25.18 0  L 14 11.18  L 2.8200000000000003 0  L 0 2.8200000000000003  L 11.18 14  L 0 25.18  L 2.8200000000000003 28  L 14 16.82  L 25.18 28  L 28 25.18  L 16.82 14  Z " fill-rule="nonzero" fill="rgba(0, 0, 0, 1)" stroke="none" transform="matrix(1 0 0 1 302 20 )" class="fill" />
    <path d="M 16.82 14  L 28 2.8200000000000003  L 25.18 0  L 14 11.18  L 2.8200000000000003 0  L 0 2.8200000000000003  L 11.18 14  L 0 25.18  L 2.8200000000000003 28  L 14 16.82  L 25.18 28  L 28 25.18  L 16.82 14  Z " stroke-width="0" stroke-dasharray="0" stroke="rgba(255, 255, 255, 0)" fill="none" transform="matrix(1 0 0 1 302 20 )" class="stroke" mask="url(#Clip8)" />
  </g>
</svg>