<?xml version="1.0" encoding="utf-8"?>
<svg version="1.1" xmlns:xlink="http://www.w3.org/1999/xlink" width="200px" height="50px" xmlns="http://www.w3.org/2000/svg">
  <defs>
    <linearGradient gradientUnits="userSpaceOnUse" x1="0" y1="25" x2="196" y2="25" id="LinearGradient11">
      <stop id="Stop12" stop-color="#d7d7d7" offset="0" />
      <stop id="Stop13" stop-color="#d7d7d7" offset="0.82" />
      <stop id="Stop14" stop-color="#7f7f7f" offset="1" />
    </linearGradient>
    <pattern id="BGPattern" patternUnits="userSpaceOnUse" alignment="0 0" imageRepeat="None" />
    <mask fill="white" id="Clip15">
      <path d="M 0 45  L 0 5  C 0 2.1999999999999997  2.1999999999999997 0  5 0  L 195 0  C 197.8 0  200 2.1999999999999997  200 5  L 200 45  C 200 47.8  197.8 50  195 50  L 5 50  C 2.1999999999999997 50  0 47.8  0 45  Z " fill-rule="evenodd" />
    </mask>
  </defs>
  <g transform="matrix(1 0 0 1 -120 -695 )">
    <path d="M 0 45  L 0 5  C 0 2.1999999999999997  2.1999999999999997 0  5 0  L 195 0  C 197.8 0  200 2.1999999999999997  200 5  L 200 45  C 200 47.8  197.8 50  195 50  L 5 50  C 2.1999999999999997 50  0 47.8  0 45  Z " fill-rule="nonzero" fill="url(#LinearGradient11)" stroke="none" transform="matrix(1 0 0 1 120 695 )" class="fill" />
    <path d="M 0 45  L 0 5  C 0 2.1999999999999997  2.1999999999999997 0  5 0  L 195 0  C 197.8 0  200 2.1999999999999997  200 5  L 200 45  C 200 47.8  197.8 50  195 50  L 5 50  C 2.1999999999999997 50  0 47.8  0 45  Z " stroke-width="2" stroke-dasharray="0" stroke="rgba(215, 215, 215, 1)" fill="none" transform="matrix(1 0 0 1 120 695 )" class="stroke" mask="url(#Clip15)" />
  </g>
</svg>